<?xml version="1.0" standalone="no"?>
<!DOCTYPE svg PUBLIC "-//W3C//DTD SVG 20010904//EN"
 "http://www.w3.org/TR/2001/REC-SVG-20010904/DTD/svg10.dtd">
<svg version="1.0" xmlns="http://www.w3.org/2000/svg"
 width="324.000000pt" height="255.000000pt" viewBox="0 0 324.000000 255.000000"
 preserveAspectRatio="xMidYMid meet">

<g transform="translate(0.000000,255.000000) scale(0.100000,-0.100000)"
fill="#000000" stroke="none">
<path d="M1438 2450 c-128 -22 -363 -104 -486 -170 -94 -51 -210 -138 -262
-198 -23 -25 -67 -98 -99 -161 -32 -64 -88 -160 -125 -215 -88 -131 -117 -220
-123 -376 -6 -135 3 -178 77 -367 60 -152 83 -192 161 -283 33 -38 71 -89 83
-112 29 -55 98 -99 166 -106 43 -4 53 -9 65 -32 50 -97 193 -238 291 -288 50
-26 173 -57 277 -71 190 -26 540 -7 719 38 237 61 450 207 538 368 46 85 96
217 120 313 30 121 37 343 16 474 l-16 98 36 40 c43 48 64 95 64 142 0 54 -17
51 -24 -4 -4 -33 -17 -63 -39 -91 -40 -52 -50 -56 -65 -24 -10 22 -9 28 9 46
69 69 73 223 9 348 -38 75 -119 137 -222 170 -24 8 -55 32 -83 64 -42 48 -45
50 -45 26 0 -15 9 -38 20 -52 26 -33 25 -37 -5 -37 -14 0 -53 20 -87 46 -72
53 -122 80 -193 104 -48 16 -50 18 -56 62 -9 60 -32 101 -73 133 -46 35 -207
92 -313 110 -90 16 -256 18 -335 5z m487 -280 c127 -15 266 -53 360 -100 87
-43 148 -91 127 -98 -7 -2 -34 -18 -59 -35 -110 -74 -144 -263 -68 -379 l24
-36 -30 -12 c-28 -12 -43 -37 -15 -27 8 3 41 9 74 13 73 8 132 -18 152 -66 11
-28 11 -34 -7 -58 -22 -30 -52 -47 -98 -58 l-30 -7 32 -10 c47 -14 102 16 128
70 18 38 23 42 57 43 36 0 66 20 31 20 -10 0 -24 4 -32 9 -11 7 -5 14 25 29
31 16 218 82 232 82 2 0 -5 -14 -15 -31 -10 -17 -40 -44 -66 -59 -51 -29 -49
-47 2 -35 25 5 29 3 35 -20 9 -36 2 -43 -52 -50 -70 -10 -82 -15 -53 -26 16
-6 42 -6 73 1 27 5 51 10 53 10 12 0 29 -166 29 -280 -1 -156 -19 -258 -71
-400 -87 -236 -194 -352 -419 -456 -204 -95 -554 -135 -854 -100 -146 18 -229
39 -305 79 -68 36 -181 145 -239 230 l-39 57 28 26 c37 34 28 38 -29 13 -55
-24 -89 -20 -155 18 -52 30 -80 87 -88 174 -5 50 -2 67 21 114 29 58 71 97
124 116 42 15 41 29 -3 29 -21 0 -35 5 -35 13 0 6 -5 45 -10 86 -24 181 58
513 164 674 46 70 158 180 251 248 206 150 480 219 750 189z m743 -239 c104
-53 165 -152 166 -269 l1 -72 -120 -41 c-66 -22 -137 -51 -159 -65 l-38 -26
-22 21 c-27 25 -87 51 -120 51 -29 0 -69 44 -86 96 -17 52 -8 160 18 211 56
108 238 156 360 94z"/>
<path d="M1543 2002 c-54 -72 -150 -149 -216 -173 -57 -20 -68 -39 -24 -39
l36 0 -15 -35 c-24 -59 -28 -143 -10 -215 25 -100 69 -147 146 -157 56 -8 51
15 -8 35 -23 7 -40 18 -36 23 8 14 189 11 309 -6 60 -9 111 -17 113 -20 2 -2
-16 -9 -40 -16 -64 -18 -68 -29 -11 -29 57 0 120 19 163 50 34 24 86 126 95
188 11 68 -12 175 -48 230 -64 96 -243 167 -357 143 -72 -15 -71 -16 -45 32
28 48 30 57 12 57 -7 0 -36 -31 -64 -68z m297 -86 c137 -69 165 -114 165 -261
0 -91 -3 -104 -27 -146 -44 -75 -40 -74 -190 -49 -91 15 -178 23 -277 24
l-144 1 -13 35 c-7 19 -13 69 -13 111 -1 101 28 162 107 223 103 78 156 97
262 93 58 -3 88 -10 130 -31z"/>
<path d="M1850 1580 c0 -5 -6 -10 -14 -10 -7 0 -16 -11 -19 -25 -6 -33 21 -49
57 -35 25 9 37 40 16 40 -5 0 -9 3 -9 8 3 20 -2 32 -16 32 -8 0 -15 -4 -15
-10z"/>
<path d="M1220 1463 c1 -67 88 -157 162 -170 44 -7 98 2 123 21 17 12 10 13
-51 9 -54 -4 -78 -2 -104 12 -44 23 -79 61 -101 113 -21 49 -29 53 -29 15z"/>
<path d="M2386 1201 c-4 -5 17 -17 44 -26 59 -20 109 -67 153 -144 33 -57 47
-55 27 4 -18 54 -87 134 -133 156 -46 20 -83 24 -91 10z"/>
<path d="M1815 1193 c-22 -2 -98 -12 -168 -23 -151 -21 -202 -43 -342 -148
-162 -121 -228 -243 -229 -422 -1 -80 1 -89 36 -150 20 -36 47 -75 60 -86 69
-63 166 -75 401 -49 134 14 176 15 295 5 102 -8 168 -8 248 0 140 14 173 23
264 73 92 51 158 111 190 174 22 42 25 61 25 159 0 107 -1 112 -38 186 -79
161 -240 251 -497 278 -94 10 -167 10 -245 3z m50 -63 c-36 -69 -135 -77 -135
-11 0 32 10 36 108 39 l43 2 -16 -30z m195 22 c0 -11 -39 -46 -67 -61 -25 -13
-57 9 -68 47 -6 21 -4 22 64 22 39 0 71 -4 71 -8z m114 -13 l57 -12 -22 -23
c-42 -45 -109 -26 -109 30 0 19 1 19 74 5z m-504 -29 c-27 -38 -64 -63 -87
-58 -19 3 -51 53 -41 63 6 7 87 22 126 24 l23 1 -21 -30z"/>
<path d="M1095 968 c-65 -76 -105 -213 -105 -358 0 -153 40 -261 125 -339 69
-63 121 -83 224 -85 136 -2 260 18 239 39 -3 3 -56 2 -118 -4 -73 -6 -135 -6
-174 0 -249 40 -344 370 -196 685 22 48 38 89 36 91 -2 2 -16 -11 -31 -29z"/>
<path d="M2684 773 c0 -90 -5 -120 -27 -182 -52 -146 -108 -200 -277 -267 -52
-20 -99 -41 -105 -46 -18 -18 76 3 158 34 137 53 207 127 256 275 36 108 40
234 8 277 -10 14 -13 -2 -13 -91z"/>
<path d="M2520 1596 c0 -9 -4 -16 -10 -16 -5 0 -10 -7 -10 -15 0 -8 7 -15 15
-15 8 0 15 -3 15 -7 0 -5 5 -15 10 -23 7 -12 13 -11 34 9 23 22 24 26 12 40
-8 9 -15 21 -15 26 0 6 -12 11 -26 13 -17 2 -25 -1 -25 -12z"/>
<path d="M2533 2295 c-36 -22 -83 -89 -83 -118 0 -17 36 -4 90 33 70 48 94 78
78 97 -15 19 -38 16 -85 -12z m67 -4 c0 -13 -100 -85 -107 -77 -8 8 25 45 62
67 33 21 45 23 45 10z"/>
<path d="M2573 2134 c-20 -9 -15 -31 9 -48 45 -32 124 -11 116 30 -3 16 -13
19 -58 21 -30 1 -61 -1 -67 -3z m107 -24 c0 -13 -44 -23 -69 -15 -36 11 -23
25 24 25 25 0 45 -4 45 -10z"/>
</g>
</svg>
